<svg xmlns="http://www.w3.org/2000/svg" width="448.3" height="514.017" viewBox="0 0 448.3 514.017">
  <g id="Group_1" data-name="Group 1" transform="translate(-963 -247.5)">
    <g id="Group_619" data-name="Group 619" transform="translate(753.46 -550.416)">
      <g id="Group_616" data-name="Group 616" transform="translate(265.523 797.916)">
        <path id="Polygon_1" data-name="Polygon 1" d="M65.331,0l65.331,114.893H0Z" transform="translate(113.157 164.832) rotate(-150)" fill="#277eb8"/>
        <path id="Polygon_2" data-name="Polygon 2" d="M65.331,0l65.331,114.893H0Z" transform="translate(223.545 228.849) rotate(-150)" fill="#277eb8"/>
        <path id="Polygon_3" data-name="Polygon 3" d="M65.331,0l65.331,114.893H0Z" transform="translate(334.871 292.866) rotate(-150)" fill="#277eb8"/>
      </g>
      <path id="Polygon_4" data-name="Polygon 4" d="M65.331,0l65.331,114.6H0Z" transform="translate(542.332 1122.323) rotate(-90)" fill="#66a7d2"/>
      <path id="Polygon_5" data-name="Polygon 5" d="M65.331,0l65.331,114.893H0Z" transform="matrix(0.848, -0.53, 0.53, 0.848, 486.139, 1090.609)" fill="#277eb8"/>
      <path id="Polygon_6" data-name="Polygon 6" d="M65.331,0l65.331,114.893H0Z" transform="translate(602.795 1152.281) rotate(149)" fill="#66a7d2"/>
      <g id="Group_617" data-name="Group 617" transform="translate(211.416 1020.944)">
        <path id="Polygon_1-2" data-name="Polygon 1" d="M65.331,0l65.331,114.893H0Z" transform="translate(278.222 126.157) rotate(30)" fill="#78b07e"/>
        <path id="Polygon_2-2" data-name="Polygon 2" d="M65.331,0l65.331,114.893H0Z" transform="translate(167.834 63.079) rotate(30)" fill="#78b07e"/>
        <path id="Polygon_3-2" data-name="Polygon 3" d="M65.331,0l65.331,114.893H0Z" transform="translate(57.447 0) rotate(30)" fill="#78b07e"/>
      </g>
      <g id="Group_618" data-name="Group 618" transform="translate(155.135 991.194)">
        <path id="Polygon_2-3" data-name="Polygon 2" d="M65.331,0l65.331,114.893H0Z" transform="translate(223.545 227.91) rotate(-150)" fill="#9fc6a3"/>
        <path id="Polygon_3-3" data-name="Polygon 3" d="M65.331,0l65.331,114.893H0Z" transform="translate(333.933 290.989) rotate(-150)" fill="#9fc6a3"/>
      </g>
      <path id="Polygon_7" data-name="Polygon 7" d="M65.331,0l65.331,114.893H0Z" transform="translate(268.863 893.983) rotate(30)" fill="#78b07e"/>
      <path id="Polygon_8" data-name="Polygon 8" d="M65.331,0l65.331,114.893H0Z" transform="translate(378.034 828.651) rotate(30)" fill="#66a7d2"/>
      <path id="Polygon_9" data-name="Polygon 9" d="M65.331,0l65.331,114.893H0Z" transform="translate(488.874 893.983) rotate(30)" fill="#66a7d2"/>
      <path id="Polygon_10" data-name="Polygon 10" d="M65.331,0l65.331,114.893H0Z" transform="translate(376.427 1092.23) rotate(-150)" fill="#9fc6a3"/>
    </g>
    <path id="Polygon_11" data-name="Polygon 11" d="M65.419,0l65.419,115.048H0Z" transform="translate(1078.048 442.089) rotate(90)" fill="#9fc6a3"/>
  </g>
</svg>
